PathFileType	4	(X/Y/Z)	C:/Users/beibeiliu/ov580/test_trc\sequence.15_training_dense_right.trc
DataRate	CameraRate	NumFrames	NumMarkers	Units	OrigDataRate	OrigDataStartFrame	OrigNumFrames
120	120	10	19	mm	120	88	348
Frame#	Time	ThumbCMC			ThumbMCP			ThumbIP			ThumbTip			IndexMCP			IndexPIP			IndexTip			MiddleMCP			MiddlePIP			MiddleTip			RingMCP			RingPIP			RingTip			PinkyMCP			PinkyPIP			PinkyTip			BackHand1			BackHand2			BackHand3	
		X0	Y0	Z0	X1	Y1	Z1	X2	Y2	Z2	X3	Y3	Z3	X4	Y4	Z4	X5	Y5	Z5	X6	Y6	Z6	X7	Y7	Z7	X8	Y8	Z8	X9	Y9	Z9	X10	Y10	Z10	X11	Y11	Z11	X12	Y12	Z12	X13	Y13	Z13	X14	Y14	Z14	X15	Y15	Z15	X16	Y16	Z16	X17	Y17	Z17	X18	Y18	Z18	
87	0.725	243.791	-21.1065	-27.0332	216.764	1.69466	-19.3989	192.276	8.20835	-14.1775	169.529	-1.88855	-6.77985	187.222	-17.6514	-66.2308	168.848	-6.87425	-66.5969	149.217	7.72659	-65.9097	173.729	-21.6802	-47.6701	171.441	-5.22563	-25.2777	199.564	-14.3052	-12.3954	169.489	-35.4659	-34.7241	173.519	-19.7301	-13.2001	200.167	-22.5682	-9.97228	170.893	-65.0495	-26.7502	154.16	-60.3648	-27.3016	134.288	-62.2334	-27.3088	214.29	-67.4697	-39.3758	235.056	-73.0264	-28.2468	237.353	-51.1093	-44.0175	
88	0.733333	243.259	-25.0249	-25.3197	219.768	2.34322	-17.1348	196.055	5.72272	-14.1241	172.863	-2.65021	-7.76766	187.624	-17.6402	-65.1897	164.796	-4.33435	-66.6643	147.378	12.6961	-64.2134	171.165	-22.9124	-45.9347	169.19	-6.19806	-23.7415	201.039	-14.088	-12.8788	168.635	-30.5849	-35.07	175.286	-16.7245	-13.7011	201.742	-28.1639	-8.88939	167.683	-62.0576	-30.1512	148.189	-59.3418	-27.3381	128.633	-58.8603	-30.1052	207.741	-63.7021	-41.0145	229.878	-74.1427	-30.2678	233.531	-52.4678	-45.8162	
89	0.741667	236.878	-26.412	-26.6849	218.587	-1.97165	-15.9237	193.749	7.40969	-13.6193	173.773	0.575658	-7.26567	187.898	-15.1578	-65.1767	170.617	-0.46748	-67.6543	146.401	12.2588	-63.631	172.344	-22.3086	-45.867	171.786	-3.82239	-21.8557	201.273	-15.9646	-14.2576	166.467	-29.8386	-34.5109	171.702	-18.8164	-12.9987	199.095	-25.8549	-10.5878	161.808	-62.0749	-28.4449	147.69	-55.8742	-29.6035	130.037	-56.0694	-30.654	204.775	-68.7735	-38.6441	223.304	-78.9588	-27.9987	229.758	-53.1254	-47.6157	
90	0.75	237.877	-28.2982	-23.9404	216.567	-0.959914	-15.953	191.909	8.47654	-14.0804	169.26	5.14654	-6.52264	188.344	-10.8369	-67.224	168.999	0.100131	-66.0917	152.252	17.3984	-64.0332	171.801	-21.235	-47.1012	170.439	-2.22911	-22.8917	196.269	-15.1247	-10.5424	164.088	-32.0963	-34.5302	173.345	-16.4308	-11.9646	197.363	-29.8077	-9.7393	159.897	-58.5715	-30.4588	141.688	-53.4751	-27.5259	126.929	-47.5243	-30.1701	200.281	-65.1058	-41.8692	224.569	-79.0018	-27.2413	228.071	-54.0623	-47.2048	
91	0.758333	233.799	-32.2447	-23.8434	216.775	-1.05548	-16.3519	197.674	6.13296	-11.5301	172.675	10.0837	-6.90743	186.238	-11.7237	-64.8662	168.417	7.52564	-66.8833	152.429	22.5343	-62.9326	170.223	-16.8328	-46.0975	170.772	-0.640748	-19.2158	196.1	-15.4551	-9.87284	162.082	-26.8526	-35.425	169.753	-15.2318	-9.83011	193.196	-25.8376	-9.12569	155.494	-58.0963	-29.2329	136.905	-46.6481	-28.8327	123.149	-38.5769	-28.7153	195.592	-65.6225	-42.366	216.794	-81.2127	-27.9566	225.857	-56.0191	-43.6623	
92	0.766667	231.808	-30.8471	-23.271	216.349	-5.8995	-14.5303	198.486	9.92231	-11.1683	174.823	9.81502	-8.31482	188.488	-7.39483	-64.4108	170.034	11.1017	-67.4841	153.585	25.7941	-62.7931	169.73	-13.181	-46.6138	170.476	3.66319	-20.8768	190.106	-14.6567	-6.25183	161.8	-23.1166	-35.818	164.377	-11.1957	-13.3211	191.509	-28.5751	-6.81532	149.234	-52.3077	-31.9994	137.049	-41.6864	-31.3297	122.318	-23.0839	-25.9494	192.395	-65.2722	-41.0078	211.393	-82.6356	-26.6018	221.255	-55.7158	-41.4701	
93	0.775	230.2	-31.6573	-21.5547	219.497	-2.09609	-11.2743	197.526	14.0989	-12.0058	176.677	21.448	-6.03216	189.832	-3.91393	-63.3034	176.455	15.7911	-67.4472	157.055	33.095	-62.9713	172.691	-7.01713	-47.5925	168.674	7.62316	-17.7224	192.139	-9.62847	-6.22451	160.09	-16.0319	-34.7255	164.779	-4.98758	-13.513	187.777	-17.2466	-5.94508	148.64	-42.6451	-32.6571	133.323	-28.2539	-28.735	130.614	-5.8358	-19.3305	185.373	-60.8534	-40.9108	208.692	-77.5103	-25.6553	216.388	-53.3066	-44.6025	
94	0.783333	227.678	-31.1804	-17.8645	220.181	-0.110187	-8.46302	200.194	20.6072	-8.24439	175.69	25.6667	-4.41945	186.792	2.99532	-61.5746	173.862	24.5479	-66.0902	164.886	44.3294	-64.8262	170.212	2.83709	-45.2428	170.154	16.8819	-17.1053	190.705	-4.05971	-4.01332	157.073	-6.52622	-33.8968	163.224	2.73385	-10.5529	183.876	-13.8604	-1.2052	149.363	-30.3888	-33.4843	136.161	-10.4733	-28.302	143.547	10.312	-12.1004	180.618	-52.5751	-39.3393	195.902	-69.8856	-28.5054	214.923	-50.5117	-42.4021	
95	0.791667	225.513	-23.0715	-18.5097	219.36	7.00538	-7.17271	198.53	27.7983	-5.58105	178.651	31.6452	-2.36011	189.596	10.9409	-60.6547	174.738	32.8411	-64.1326	166.235	53.2174	-62.6711	167.51	9.08511	-43.0049	169.721	27.1703	-16.6858	186.824	4.32162	-1.1129	157.938	2.41833	-34.379	163.507	13.5307	-10.5943	182.35	-5.46283	-0.920301	145.247	-16.8212	-33.34	137.489	4.79331	-22.5643	150.046	16.5603	-7.90191	178.415	-44.2813	-41.2995	190.762	-63.8932	-29.7116	204.675	-42.1397	-43.2898	
96	0.8	223.552	-17.1627	-18.9078	212.869	11.1057	-7.98288	200.803	29.8356	-3.47881	180.006	41.6178	0.548282	189.753	20.3877	-60.4602	180.407	40.8485	-63.379	165.598	59.4222	-61.1377	169.421	24.4486	-41.4637	168.243	34.1885	-14.2346	186.656	14.3768	-0.0459738	155.202	10.3355	-32.479	165.14	20.7779	-6.71323	184.54	1.86096	-3.00626	140.384	-9.29515	-30.8709	140.457	16.6522	-23.1066	150.092	26.7725	-6.41716	176.28	-36.0102	-40.1275	188.109	-54.8896	-31.3308	204.652	-37.8817	-41.8402	
